<svg width="117" height="117" viewBox="0 0 117 117" fill="none" xmlns="http://www.w3.org/2000/svg">
<circle cx="58.5" cy="58.5" r="58.5" fill="white"/>
<path d="M88.0003 36.7109V34.0001C88.0003 31.5251 85.9753 29.5001 83.5003 29.5001H61.0002V35.5001H83.5003C85.1391 35.5001 86.6754 35.9425 88.0003 36.7109Z" fill="#3B1F9E" fill-opacity="0.5"/>
<path d="M76.0856 56.6712C80.5728 56.6712 84.7087 58.202 88.0002 60.7679V44.5001C88.0002 42.025 85.9752 40 83.5002 40H56.5001V29.5C56.5001 27.025 54.4751 25 52.0001 25H29.5C27.025 25 25 27.025 25 29.5V76.0856H56.6712C56.6712 65.3804 65.3804 56.6712 76.0856 56.6712Z" fill="#3B1F9E" fill-opacity="0.5"/>
<path d="M76.0857 61.1711C67.8619 61.1711 61.1711 67.8618 61.1711 76.0857C61.1711 84.3096 67.8619 91.0001 76.0857 91.0001C84.3096 91.0001 91.0002 84.3095 91.0002 76.0855C91.0002 67.8616 84.3096 61.1711 76.0857 61.1711ZM85.3109 78.3355H78.3358V85.3106H73.8358V78.3355H66.8608V73.8355H73.8358V66.8605H78.3358V73.8355H85.3109V78.3355Z" fill="#3B1F9E" fill-opacity="0.5"/>
</svg>
