<svg width="24" height="18" viewBox="0 0 24 18" fill="none" xmlns="http://www.w3.org/2000/svg">
<path d="M22.9559 9.81851C22.2599 8.9477 21.3705 8.38326 20.287 8.12487C20.6289 7.60824 20.7994 7.03321 20.7994 6.39991C20.7994 5.51653 20.4868 4.76244 19.8621 4.13737C19.2372 3.51251 18.483 3.19996 17.5997 3.19996C16.8079 3.19996 16.1164 3.45831 15.5248 3.97502C15.0334 2.77497 14.2477 1.81252 13.1686 1.08762C12.0896 0.362512 10.9 0 9.59983 0C7.83328 0 6.32487 0.625158 5.07486 1.87517C3.82476 3.12487 3.19991 4.63337 3.19991 6.40004C3.19991 6.50836 3.20827 6.68756 3.22491 6.93746C2.24162 7.39581 1.45837 8.08327 0.874889 8.99984C0.29163 9.91667 0 10.9165 0 12C0 13.5417 0.548015 14.8602 1.64374 15.956C2.7395 17.0522 4.0583 17.6 5.59993 17.6H19.2001C20.5249 17.6 21.6561 17.131 22.5937 16.1937C23.5312 15.2564 24 14.1252 24 12.7999C23.9999 11.6833 23.6518 10.6896 22.9559 9.81851ZM15.8809 9.48122C15.8015 9.5602 15.708 9.59974 15.5998 9.59974H12.7998V13.9999C12.7998 14.1081 12.7603 14.2018 12.6811 14.281C12.6018 14.3603 12.5082 14.3997 12.4001 14.3997H9.99968C9.89137 14.3997 9.79763 14.3604 9.71847 14.281C9.63949 14.2018 9.59974 14.1081 9.59974 13.9999V9.59974H6.79973C6.68318 9.59974 6.58725 9.5623 6.51239 9.48752C6.43739 9.41248 6.39996 9.3166 6.39996 9.20006C6.39996 9.09997 6.44155 8.99989 6.52482 8.89993L10.9123 4.51257C10.9873 4.43753 11.0832 4.40005 11.1998 4.40005C11.3165 4.40005 11.4124 4.43753 11.4873 4.51257L15.8874 8.91241C15.9624 8.98736 15.9995 9.0832 15.9995 9.2001C15.9995 9.3082 15.9599 9.40228 15.8809 9.48122Z" fill="#3B1F9E" fill-opacity="0.5"/>
</svg>
